<svg width="26" height="64" viewBox="0 0 26 64" fill="none" xmlns="http://www.w3.org/2000/svg">
<path d="M3.81112 1C3.81112 0.723858 3.58726 0.5 3.31112 0.5C3.03498 0.5 2.81112 0.723857 2.81112 1L3.81112 1ZM3.31111 31L2.85485 31.2045L3.31111 31ZM21.4022 63.2877C21.5611 63.5136 21.873 63.5678 22.0989 63.4089L25.779 60.8192C26.0048 60.6603 26.0591 60.3484 25.9001 60.1225C25.7412 59.8967 25.4293 59.8425 25.2035 60.0014L21.9323 62.3034L19.6303 59.0321C19.4714 58.8063 19.1595 58.752 18.9336 58.911C18.7078 59.0699 18.6536 59.3818 18.8125 59.6076L21.4022 63.2877ZM2.81112 1C2.81112 3.33155 2.49202 5.63546 2.08716 7.97894C1.68465 10.3089 1.19211 12.7031 0.865519 15.1463C0.20833 20.0625 0.203594 25.2902 2.85485 31.2045L3.76736 30.7955C1.21862 25.1098 1.21389 20.0875 1.8567 15.2787C2.18011 12.8594 2.66258 10.5224 3.07257 8.14918C3.48021 5.78954 3.81112 3.41845 3.81112 1L2.81112 1ZM2.85485 31.2045C4.20298 34.2119 6.3318 36.2854 8.65478 38.057C9.81315 38.9403 11.0309 39.7566 12.2223 40.571C13.4191 41.389 14.5936 42.2079 15.6938 43.1114C17.8874 44.9129 19.7683 47.0371 20.8687 50.0973C21.9714 53.1637 22.3087 57.2206 21.3185 62.9143L22.3037 63.0857C23.3135 57.2794 22.9883 53.0363 21.8097 49.7589C20.629 46.4754 18.6098 44.2121 16.3284 42.3386C15.1911 41.4046 13.9844 40.5641 12.7866 39.7454C11.5835 38.9231 10.3934 38.1253 9.26119 37.2618C7.00292 35.5396 5.01924 33.5881 3.76736 30.7955L2.85485 31.2045Z" fill="white"/>
</svg>
