<svg width="96" height="57" viewBox="0 0 96 57" fill="none" xmlns="http://www.w3.org/2000/svg">
<path d="M1 1C0.723858 1 0.5 1.22386 0.5 1.5C0.5 1.77614 0.723857 2 1 2L1 1ZM91.6464 56.6254C91.8417 56.8207 92.1583 56.8207 92.3536 56.6254L95.5355 53.4434C95.7308 53.2482 95.7308 52.9316 95.5355 52.7363C95.3403 52.5411 95.0237 52.5411 94.8284 52.7363L92 55.5648L89.1716 52.7363C88.9763 52.5411 88.6597 52.5411 88.4645 52.7363C88.2692 52.9316 88.2692 53.2482 88.4645 53.4434L91.6464 56.6254ZM1 2C4.57535 2 8.68126 1.81974 13.1136 1.63495C17.5504 1.44998 22.3212 1.26011 27.2443 1.23892C37.0943 1.19654 47.5244 1.83009 57.0518 4.51603C66.5737 7.20039 75.1707 11.9278 81.3919 20.06C87.6132 28.1922 91.5 39.7831 91.5 56.2719H92.5C92.5 39.6258 88.5743 27.8028 82.1862 19.4524C75.7981 11.1021 66.9888 6.27843 57.3232 3.55354C47.6631 0.830231 37.1245 0.196397 27.24 0.238932C22.296 0.260207 17.5082 0.450871 13.0719 0.635822C8.63124 0.820957 4.54965 1 1 1L1 2Z" fill="white"/>
</svg>
