<svg width="90" height="58" viewBox="0 0 90 58" fill="none" xmlns="http://www.w3.org/2000/svg">
<path d="M0.910557 2.00807C0.638869 2.05747 0.458667 2.31776 0.508065 2.58945C0.557463 2.86114 0.817754 3.04134 1.08944 2.99194L0.910557 2.00807ZM85.6464 57.6254C85.8417 57.8207 86.1583 57.8207 86.3536 57.6254L89.5355 54.4434C89.7308 54.2482 89.7308 53.9316 89.5355 53.7363C89.3403 53.5411 89.0237 53.5411 88.8284 53.7363L86 56.5648L83.1716 53.7363C82.9763 53.5411 82.6597 53.5411 82.4645 53.7363C82.2692 53.9316 82.2692 54.2482 82.4645 54.4434L85.6464 57.6254ZM1.08944 2.99194C6.56384 1.9966 27.7234 -0.862166 47.4881 4.76567C57.3621 7.57722 66.8573 12.4981 73.884 20.798C80.9051 29.0913 85.5 40.8031 85.5 57.2719H86.5C86.5 40.6058 81.8449 28.6537 74.6472 20.1519C67.4552 11.6568 57.7629 6.6516 47.7619 3.8039C27.7766 -1.88676 6.43616 1.00342 0.910557 2.00807L1.08944 2.99194Z" fill="white"/>
</svg>
