<svg width="92" height="48" viewBox="0 0 92 48" fill="none" xmlns="http://www.w3.org/2000/svg">
<path d="M0.666777 17.8991C0.460898 18.0831 0.44319 18.3992 0.627224 18.6051C0.811258 18.8109 1.12734 18.8286 1.33322 18.6446L0.666777 17.8991ZM87.6464 47.6254C87.8417 47.8207 88.1583 47.8207 88.3536 47.6254L91.5355 44.4434C91.7308 44.2482 91.7308 43.9316 91.5355 43.7363C91.3403 43.5411 91.0237 43.5411 90.8284 43.7363L88 46.5647L85.1716 43.7363C84.9763 43.5411 84.6597 43.5411 84.4645 43.7363C84.2692 43.9316 84.2692 44.2482 84.4645 44.4434L87.6464 47.6254ZM1.33322 18.6446C6.52546 14.0033 14.5288 9.35636 23.6247 6.03419C32.7188 2.71265 42.8661 0.729721 52.3408 1.38007C61.8103 2.03007 70.5799 5.30664 76.9865 12.4764C83.3954 19.6486 87.5 30.784 87.5 47.2718H88.5C88.5 30.6248 84.3546 19.2213 77.7322 11.8101C71.1076 4.39648 62.0647 1.04519 52.4092 0.382421C42.7589 -0.279992 32.4687 1.73941 23.2816 5.09488C14.0962 8.44971 5.97454 13.1545 0.666777 17.8991L1.33322 18.6446Z" fill="white"/>
</svg>
