<svg width="84" height="55" viewBox="0 0 84 55" fill="none" xmlns="http://www.w3.org/2000/svg">
<path d="M1.52009 1.01638C1.52914 0.740391 1.31274 0.509318 1.03674 0.500269C0.760748 0.49122 0.529675 0.707621 0.520626 0.983615L1.52009 1.01638ZM83.4204 50.3C83.586 50.0791 83.5413 49.7657 83.3204 49.6L79.7204 46.9C79.4994 46.7343 79.186 46.7791 79.0204 47C78.8547 47.2209 78.8994 47.5343 79.1204 47.7L82.3204 50.1L79.9204 53.3C79.7547 53.5209 79.7994 53.8343 80.0204 54C80.2413 54.1657 80.5547 54.1209 80.7204 53.9L83.4204 50.3ZM0.520626 0.983615C0.183422 11.2683 3.92289 26.0722 16.2368 37.0975C28.5627 48.1335 49.3944 55.3088 83.0911 50.495L82.9496 49.505C49.4464 54.2912 28.9447 47.1332 16.9039 36.3525C4.85116 25.5611 1.19063 11.065 1.52009 1.01638L0.520626 0.983615Z" fill="white"/>
</svg>
