<svg width="66" height="56" viewBox="0 0 66 56" fill="none" xmlns="http://www.w3.org/2000/svg">
<path d="M65.4984 0.959914C65.4762 0.684661 65.2351 0.479471 64.9599 0.501609C64.6846 0.523748 64.4794 0.764832 64.5016 1.04009L65.4984 0.959914ZM3.64642 55.3536C3.84168 55.5488 4.15826 55.5488 4.35352 55.3536L7.5355 52.1716C7.73077 51.9763 7.73077 51.6597 7.5355 51.4645C7.34024 51.2692 7.02366 51.2692 6.8284 51.4645L3.99997 54.2929L1.17154 51.4645C0.976281 51.2692 0.659699 51.2692 0.464437 51.4645C0.269175 51.6597 0.269175 51.9763 0.464437 52.1716L3.64642 55.3536ZM65 1C64.5016 1.04009 64.5016 1.03995 64.5016 1.03994C64.5016 1.04009 64.5016 1.04019 64.5016 1.04049C64.5017 1.0411 64.5017 1.04217 64.5019 1.04371C64.5021 1.04679 64.5025 1.05173 64.503 1.05851C64.5039 1.07205 64.5054 1.09292 64.5072 1.12087C64.5107 1.17677 64.5156 1.26099 64.5206 1.37161C64.5307 1.59285 64.5415 1.91957 64.5439 2.33638C64.5487 3.17019 64.5199 4.36331 64.385 5.79286C64.1149 8.655 63.4208 12.4487 61.7316 16.201C60.0439 19.9497 57.3669 23.649 53.1298 26.3478C48.8938 29.0459 43.06 30.7684 35.0166 30.5003L34.9833 31.4997C43.1899 31.7733 49.2312 30.0166 53.667 27.1913C58.1018 24.3666 60.8936 20.4982 62.6434 16.6115C64.3916 12.7284 65.1038 8.81896 65.3806 5.88683C65.5191 4.41924 65.5489 3.19244 65.5439 2.33062C65.5414 1.8996 65.5302 1.55957 65.5196 1.32602C65.5143 1.20924 65.5091 1.11905 65.5051 1.0574C65.5032 1.02657 65.5015 1.00287 65.5004 0.986543C65.4998 0.978379 65.4993 0.972058 65.499 0.96761C65.4988 0.965386 65.4987 0.96363 65.4986 0.962346C65.4985 0.961705 65.4985 0.961096 65.4984 0.960775C65.4984 0.960286 65.4984 0.959914 65 1ZM35.0166 30.5003C18.7021 29.9565 10.7405 33.84 6.90802 39.1123C3.10498 44.3441 3.49997 50.8055 3.49997 55H4.49997C4.49997 50.6945 4.14494 44.6142 7.7169 39.7002C11.2595 34.8267 18.7978 30.9602 34.9833 31.4997L35.0166 30.5003Z" fill="white"/>
</svg>
