<svg width="99" height="62" viewBox="0 0 99 62" fill="none" xmlns="http://www.w3.org/2000/svg">
<path d="M98.0287 1C98.0287 0.723858 97.8048 0.5 97.5287 0.5C97.2525 0.5 97.0287 0.723858 97.0287 1H98.0287ZM4.27702 61.4321C4.51564 61.571 4.82174 61.4903 4.96072 61.2516L7.22548 57.3631C7.36446 57.1245 7.28368 56.8184 7.04506 56.6794C6.80644 56.5404 6.50033 56.6212 6.36136 56.8598L4.34824 60.3163L0.891743 58.3032C0.653122 58.1642 0.347019 58.245 0.208042 58.4836C0.0690645 58.7222 0.149842 59.0283 0.388463 59.1673L4.27702 61.4321ZM97.0287 1C97.0287 8.03683 96.9559 14.6818 91.7345 19.6373C86.4868 24.6178 75.917 28 54.5287 28V29C75.9404 29 86.8706 25.6322 92.4229 20.3627C98.0015 15.0682 98.0287 7.96317 98.0287 1H97.0287ZM54.5287 28C33.0578 28 19.6302 33.1412 11.9613 39.8743C4.28718 46.6119 2.40886 54.9267 4.04521 61.1276L5.01211 60.8724C3.48179 55.0733 5.20349 47.1381 12.6211 40.6257C20.0438 34.1088 33.1996 29 54.5287 29V28Z" fill="white"/>
</svg>
